<?xml version="1.0" standalone="no"?>
<!DOCTYPE svg PUBLIC "-//W3C//DTD SVG 20010904//EN"
 "http://www.w3.org/TR/2001/REC-SVG-20010904/DTD/svg10.dtd">
<svg version="1.0" xmlns="http://www.w3.org/2000/svg"
 width="1462.000000pt" height="1009.000000pt" viewBox="0 0 1462.000000 1009.000000"
 preserveAspectRatio="xMidYMid meet">

<g transform="translate(0.000000,1009.000000) scale(0.100000,-0.100000)"
fill="#000000" stroke="none">
<path d="M3995 10083 c-413 -34 -844 -133 -1215 -278 -348 -136 -775 -394
-852 -514 -61 -97 -79 -246 -44 -381 29 -115 64 -119 173 -19 703 645 1660
1069 2411 1069 220 0 404 -34 531 -99 74 -38 160 -112 200 -172 194 -291 41
-739 -449 -1315 -52 -60 -170 -186 -264 -279 -991 -987 -2520 -1852 -3666
-2074 -111 -22 -284 -45 -410 -57 -41 -3 -81 -11 -87 -16 -26 -21 -13 -56 41
-110 253 -252 852 -211 1692 117 478 187 997 459 1489 783 905 593 1592 1273
1884 1863 376 759 132 1283 -673 1444 -67 13 -170 29 -230 34 -99 10 -432 12
-531 4z"/>
<path d="M3562 9578 c-16 -24 -235 -376 -487 -783 -252 -407 -604 -973 -782
-1258 -179 -287 -322 -525 -319 -532 10 -27 89 -75 189 -114 112 -43 239 -75
266 -66 37 11 311 495 986 1740 158 292 326 597 372 680 47 82 86 159 86 171
0 49 -88 134 -183 178 -77 36 -94 34 -128 -16z"/>
<path d="M8124 8540 c-12 -5 -26 -15 -30 -22 -19 -29 -94 -211 -94 -227 0 -33
34 -64 113 -102 145 -70 199 -52 303 98 31 44 35 57 30 86 -12 63 -107 132
-223 162 -64 17 -70 17 -99 5z"/>
<path d="M7331 8262 c-11 -9 -59 -66 -107 -127 -47 -60 -83 -100 -80 -89 4 12
2 33 -4 48 -55 145 -601 -20 -769 -232 -40 -51 -73 -125 -73 -166 0 -27 -13
-42 -100 -115 -371 -315 -845 -641 -932 -641 -22 0 -26 4 -26 28 0 41 26 134
61 217 l30 72 202 154 c257 196 363 284 459 381 128 129 168 226 115 276 -52
49 -209 92 -334 92 -158 -1 -278 -47 -409 -159 -242 -208 -507 -655 -539 -913
-19 -149 122 -251 350 -252 94 -1 104 1 165 33 141 72 406 261 699 499 l154
125 -60 -114 c-33 -63 -97 -176 -142 -253 -56 -96 -81 -148 -81 -171 0 -85
170 -221 268 -213 35 3 39 7 86 90 l49 86 36 -24 c90 -59 287 -101 422 -90
187 15 321 92 350 199 28 106 -48 191 -307 345 -180 107 -244 161 -244 209 0
95 172 275 345 360 70 35 107 45 129 37 23 -9 20 -24 -13 -88 -59 -111 -48
-192 36 -265 44 -39 131 -78 143 -64 4 5 43 55 87 113 44 58 128 163 187 234
58 71 109 139 112 152 9 36 -31 108 -89 159 -82 74 -141 97 -176 67z m-1305
-257 c16 -40 -121 -184 -364 -388 -178 -148 -232 -191 -232 -183 0 4 22 42 50
86 132 214 315 419 420 473 60 30 117 36 126 12z m344 -451 c25 -25 109 -85
186 -135 167 -105 204 -141 204 -201 0 -35 -6 -47 -43 -83 -44 -45 -118 -75
-183 -75 -33 0 -134 19 -134 25 0 1 14 33 31 69 28 59 31 75 27 136 -3 50 -9
77 -24 97 -34 45 -97 88 -159 108 l-58 18 46 43 c25 24 50 44 54 44 5 0 29
-20 53 -46z"/>
<path d="M8981 8159 c-157 -28 -328 -191 -496 -471 -55 -93 -71 -109 -289
-307 -351 -317 -496 -441 -518 -441 -18 0 -3 71 30 146 60 135 182 348 375
653 79 125 110 182 109 203 -2 72 -124 168 -257 203 -95 24 -107 18 -180 -105
-145 -245 -417 -755 -484 -908 -47 -106 -50 -136 -18 -182 45 -67 212 -130
342 -130 52 0 69 5 108 31 80 53 305 252 539 478 54 52 98 91 98 88 0 -4 -11
-30 -23 -59 -60 -134 -102 -294 -88 -331 25 -65 156 -149 291 -186 135 -38
165 -30 272 71 100 93 421 452 687 768 63 74 121 142 129 150 8 8 -43 -97
-113 -235 -550 -1075 -927 -1677 -1123 -1792 -54 -32 -99 -26 -138 19 -25 30
-26 37 -21 108 2 41 12 98 22 125 24 72 104 237 158 328 26 43 47 83 47 89 0
14 -256 4 -345 -13 -99 -18 -125 -37 -172 -125 -116 -221 -110 -397 19 -527
128 -128 399 -181 628 -121 90 23 213 82 285 137 178 134 468 553 822 1187
230 413 463 865 463 900 0 52 -66 125 -165 185 -69 41 -158 70 -179 58 -8 -4
-83 -91 -167 -193 l-154 -185 -7 81 c-10 127 -40 216 -87 258 -11 10 -46 24
-78 32 -77 18 -255 25 -322 13z m365 -145 c26 -39 43 -118 51 -226 l6 -97
-119 -138 c-267 -311 -545 -602 -602 -632 -18 -10 -23 -9 -28 4 -26 68 73 345
218 610 207 377 408 580 474 479z"/>
<path d="M11454 8130 c-139 -70 -449 -365 -982 -934 l-84 -89 52 104 c29 57
128 249 221 426 93 177 169 331 169 342 0 76 -254 206 -311 159 -15 -11 -672
-1107 -685 -1141 -10 -26 39 -68 129 -112 97 -47 216 -80 253 -71 12 3 98 88
190 188 311 340 651 692 795 825 142 130 208 187 197 168 -199 -338 -480 -885
-494 -963 -14 -74 47 -135 181 -179 77 -25 93 -26 395 -34 173 -4 378 -13 455
-19 803 -65 1323 -241 1710 -577 426 -371 666 -1036 642 -1778 -11 -316 -59
-588 -155 -881 -173 -524 -435 -952 -827 -1353 l-140 -143 -115 36 c-329 103
-704 147 -1074 126 -536 -31 -913 -143 -1085 -325 -69 -73 -95 -132 -96 -215
0 -118 67 -222 202 -311 254 -166 686 -200 1088 -84 316 90 655 274 988 535
136 106 108 103 272 22 120 -59 237 -130 338 -205 97 -72 266 -234 347 -332
140 -171 272 -412 344 -630 61 -182 106 -445 106 -615 l0 -70 70 0 70 0 0 84
c0 107 -23 288 -56 434 -140 627 -559 1154 -1144 1439 -63 31 -116 57 -117 58
-1 0 46 51 105 111 404 414 679 864 856 1401 125 380 173 708 163 1098 -9 309
-53 571 -143 845 -56 170 -183 426 -271 549 -380 527 -987 805 -1963 895 -140
13 -567 36 -679 36 -33 0 -34 0 -28 38 10 77 151 339 370 687 175 278 160 249
147 289 -20 63 -119 139 -227 175 -83 28 -109 27 -179 -9z m977 -6030 c239
-23 609 -102 609 -129 0 -10 -192 -153 -300 -224 -295 -191 -562 -310 -826
-369 -85 -19 -129 -22 -309 -22 -244 0 -305 12 -461 89 -146 72 -227 176 -209
271 16 87 121 181 269 243 155 65 408 120 641 140 144 12 465 13 586 1z"/>
<path d="M935 5204 c-301 -53 -505 -187 -609 -399 -49 -99 -66 -176 -66 -293
0 -177 61 -316 189 -434 134 -124 280 -184 712 -293 312 -78 401 -106 491
-152 95 -49 142 -94 179 -169 28 -57 32 -74 32 -149 0 -78 -3 -91 -37 -159
-45 -92 -102 -146 -211 -196 -122 -58 -213 -75 -390 -74 -178 2 -290 26 -423
93 -176 89 -270 218 -312 434 -8 42 -16 57 -28 57 -24 0 -230 -20 -270 -26
-29 -5 -32 -8 -32 -42 0 -83 39 -224 89 -326 124 -253 325 -396 653 -468 90
-19 132 -22 328 -22 212 0 231 2 323 27 304 82 497 237 594 479 100 246 44
531 -138 709 -64 62 -120 101 -217 149 -105 52 -227 89 -559 171 -393 96 -509
141 -578 222 -74 86 -87 240 -30 345 56 103 162 174 310 208 118 27 370 25
478 -4 205 -56 319 -174 365 -379 l17 -75 115 6 c63 4 137 9 164 12 l48 6 -6
58 c-23 204 -133 403 -284 513 -110 81 -283 147 -452 173 -119 17 -340 17
-445 -2z"/>
<path d="M2663 4303 c3 -781 5 -888 20 -973 25 -133 52 -221 99 -320 34 -70
57 -101 132 -176 80 -81 103 -97 196 -142 186 -89 356 -119 624 -109 243 9
409 54 556 152 226 151 331 348 369 697 7 61 11 406 11 923 l0 825 -170 0
-170 0 0 -795 c0 -481 -4 -834 -10 -893 -31 -285 -112 -435 -281 -515 -108
-52 -206 -70 -384 -70 -170 -1 -233 11 -353 68 -87 41 -177 126 -216 204 -38
73 -63 178 -75 312 -7 69 -11 423 -11 902 l0 787 -170 0 -171 0 4 -877z"/>
<path d="M5220 3900 l0 -1280 175 0 175 0 0 520 0 520 398 0 c227 0 436 5 487
11 200 24 370 86 468 170 229 197 317 563 208 870 -98 276 -301 420 -645 458
-56 7 -333 11 -681 11 l-585 0 0 -1280z m1201 970 c53 -5 122 -19 153 -30 82
-31 157 -104 203 -198 l38 -76 0 -141 0 -141 -38 -76 c-60 -122 -146 -185
-307 -224 -64 -15 -133 -18 -487 -22 l-413 -4 0 461 0 461 378 0 c207 0 420
-5 473 -10z"/>
<path d="M7610 3900 l0 -1280 955 0 955 0 0 150 0 150 -785 0 -785 0 0 435 0
435 710 0 710 0 0 150 0 150 -710 0 -710 0 0 395 0 395 755 0 755 0 0 150 0
150 -925 0 -925 0 0 -1280z"/>
<path d="M9990 3900 l0 -1280 170 0 170 0 0 570 0 570 238 0 c277 0 351 -9
441 -52 137 -64 246 -202 596 -756 l210 -332 213 0 214 0 -23 38 c-144 234
-485 761 -532 820 -95 121 -194 214 -280 265 l-79 45 59 12 c102 19 226 61
304 101 327 169 441 579 258 929 -75 145 -184 240 -334 291 -153 53 -250 59
-971 59 l-654 0 0 -1280z m1369 976 c138 -36 237 -113 289 -224 24 -51 27 -69
27 -167 0 -101 -2 -115 -29 -170 -38 -76 -115 -153 -187 -187 -119 -56 -163
-60 -666 -65 l-463 -5 0 422 0 422 483 -5 c410 -3 492 -6 546 -21z"/>
</g>
</svg>
